<svg xmlns="http://www.w3.org/2000/svg" xmlns:xlink="http://www.w3.org/1999/xlink" viewBox="0 0 1440 769"><defs><style>.cls-1{fill:none;}.cls-2{isolation:isolate;}.cls-3{fill:#fcfcfc;}.cls-4{fill:url(#linear-gradient);}.cls-5{clip-path:url(#clip-path);}.cls-6{fill:url(#linear-gradient-2);}.cls-7{fill:url(#linear-gradient-3);}.cls-8{fill:#5bc1ee;opacity:0.1;}.cls-9{fill:#fff;}.cls-10{fill:url(#linear-gradient-4);}.cls-11{opacity:0.6;mix-blend-mode:multiply;fill:url(#linear-gradient-5);}.cls-12{opacity:0.9;}</style><linearGradient id="linear-gradient" x1="4.8" y1="-21.21" x2="1429.02" y2="801.06" gradientUnits="userSpaceOnUse"><stop offset="0.16" stop-color="#4e5ef4"/><stop offset="0.61" stop-color="#4734c0"/></linearGradient><clipPath id="clip-path"><rect class="cls-1" x="2.22" y="-8.3" width="1438.26" height="796.26"/></clipPath><linearGradient id="linear-gradient-2" x1="86.26" y1="-126.44" x2="577.58" y2="285.83" gradientUnits="userSpaceOnUse"><stop offset="0.39" stop-color="#5d89f7"/><stop offset="0.62" stop-color="#5469f2"/><stop offset="0.83" stop-color="#4e52ef"/><stop offset="0.96" stop-color="#4c4aee"/></linearGradient><linearGradient id="linear-gradient-3" x1="474.32" y1="577" x2="1741.09" y2="1038.07" gradientUnits="userSpaceOnUse"><stop offset="0.15" stop-color="#7333e8"/><stop offset="0.36" stop-color="#5534ca"/><stop offset="0.56" stop-color="#3e36b2"/><stop offset="0.69" stop-color="#3536a9"/></linearGradient><linearGradient id="linear-gradient-4" x1="940.03" y1="535.6" x2="967.34" y2="610.64" gradientTransform="matrix(1, -0.02, 0.02, 1, 179.05, 132.25)" gradientUnits="userSpaceOnUse"><stop offset="0.13" stop-color="#865beb"/><stop offset="0.37" stop-color="#7c58e3"/><stop offset="0.79" stop-color="#624ece"/><stop offset="1" stop-color="#5249c1"/></linearGradient><linearGradient id="linear-gradient-5" x1="1091.81" y1="691.34" x2="1211.22" y2="691.34" gradientUnits="userSpaceOnUse"><stop offset="0.07" stop-color="#49c5fe" stop-opacity="0"/><stop offset="0.33" stop-color="#4caefb" stop-opacity="0.26"/><stop offset="0.65" stop-color="#4e94f7" stop-opacity="0.55"/><stop offset="0.88" stop-color="#5084f5" stop-opacity="0.73"/><stop offset="1" stop-color="#517ef4" stop-opacity="0.8"/></linearGradient></defs><title>backgound page sign in desktop100</title><g class="cls-2"><g id="Layer_6" data-name="Layer 6"><path class="cls-3" d="M1220.28,114.16l-.44,1.13a.72.72,0,0,1-.52.53l-1.2.46,1.18.34a.73.73,0,0,1,.55.52l.45,1.31.44-1.21c.09-.38.37-.5.75-.6l.93-.41-1.05-.39a1,1,0,0,1-.67-.59Z"/></g><g id="Layer_7" data-name="Layer 7"><rect class="cls-4" x="-2.61" y="-8.37" width="1439.05" height="796.58"/><g class="cls-5"><path class="cls-6" d="M-3.84,304.69s83.48-12.5,103.26,36.77c17,42.43-7.45,88.64,104.32,78.27,92.35-8.57,224.13-101.52,281.74-208.08C533.74,122.39,611.8,75.87,689.15,67.07c63.49-7.23,132.71-52.81,132.71-83l-336-4.72L-4.9-17.8Z"/></g><g class="cls-5"><path class="cls-7" d="M192.81,1356.42s72.7-270.36,262.4-447.56c136.5-127.51,502.27-274,364.64-366.91-136.31-92-12.5-185.16,129.5-231.73,153.13-50.23,354.79-47,468.38-210.53h168.12l17,1318.07Z"/></g><path class="cls-8" d="M885.67-105,853.32-47.57s133.13,90.41,46.6,243.71-259.6,108.1-381.63,202.43S469.48,546,360.76,654.07,101.17,779.86,101.17,779.86s17.77,27.1,71.75,34.66c13.28-7.75,33.18-18.95,61.74-34.13,63.67-33.84,135.3-115.62,146.44-98.7,10.36,15.74-9.57,79.06-71.33,116.19,111.79-35.87,90.11-92.73,139.74-200.8,53.25-116,215.22-145.44,326.16-204.4S905.93,248.89,952.52,129,885.67-105,885.67-105ZM632.83,424.86C564.05,444.51,516.35,492.67,499.71,474s75.44-76.64,123.14-92.37,73.22-4.91,73.22-4.91C724.63,388,701.61,405.21,632.83,424.86ZM779,362.21c-17.75,6.88-37.72,6.88-23.29-13.75s39.93-10.81,39.93-10.81C801.18,340.6,796.74,355.34,779,362.21Z"/><path class="cls-9" d="M1089.47-11.28c41.94,82,65.29,173,65.29,268.86,0,218.59-121.41,412.05-307.76,530.38h593.48V-11.28Z"/><path class="cls-10" d="M1143.66,729.94c-15.42,3.28-67.49,1.92-51.59-44.61,6.34-18.56,33.94-43.41,74-37.29C1212.16,655.1,1207.84,716.31,1143.66,729.94Z"/><path class="cls-11" d="M1148.16,733.89c-17,2.09-73.78-1.11-51.05-49.8,9.07-19.43,41.81-43.64,84.24-33.28C1230.27,662.76,1219,725.21,1148.16,733.89Z"/><g class="cls-12"><ellipse class="cls-9" cx="314.24" cy="182.77" rx="2.32" ry="2.06"/><ellipse class="cls-9" cx="879.55" cy="112.25" rx="2.32" ry="2.06"/><ellipse class="cls-9" cx="1173.9" cy="385.56" rx="1.51" ry="1.33"/><ellipse class="cls-9" cx="864.1" cy="344.37" rx="1.51" ry="1.33"/><ellipse class="cls-9" cx="998.17" cy="441.84" rx="1.51" ry="1.33"/><ellipse class="cls-9" cx="965.46" cy="244.87" rx="1.51" ry="1.33"/><ellipse class="cls-9" cx="1064.43" cy="79.18" rx="0.92" ry="0.81"/><ellipse class="cls-9" cx="1150.23" cy="165.26" rx="0.92" ry="0.81"/><ellipse class="cls-9" cx="916.75" cy="129.47" rx="0.92" ry="0.81"/><ellipse class="cls-9" cx="868.07" cy="325.38" rx="0.92" ry="0.81"/><ellipse class="cls-9" cx="785.82" cy="256.76" rx="0.92" ry="0.81"/><ellipse class="cls-9" cx="763.55" cy="264.17" rx="0.71" ry="0.62"/><ellipse class="cls-9" cx="955.98" cy="240.67" rx="0.71" ry="0.62"/><ellipse class="cls-9" cx="1060.25" cy="457.64" rx="0.71" ry="0.62"/><ellipse class="cls-9" cx="583.06" cy="132.65" rx="0.71" ry="0.62"/><ellipse class="cls-9" cx="634.34" cy="158.22" rx="0.71" ry="0.62"/><ellipse class="cls-9" cx="664.96" cy="153.07" rx="0.71" ry="0.62"/><ellipse class="cls-9" cx="444.43" cy="564.89" rx="2.32" ry="2.06"/><ellipse class="cls-9" cx="461.96" cy="454.33" rx="0.71" ry="0.62"/><ellipse class="cls-9" cx="470.01" cy="210.58" rx="1.51" ry="1.33"/><ellipse class="cls-9" cx="371.88" cy="125.83" rx="1.51" ry="1.33"/><ellipse class="cls-9" cx="484.88" cy="188.87" rx="0.92" ry="0.81"/><ellipse class="cls-9" cx="153.31" cy="335.79" rx="2.32" ry="2.06"/><ellipse class="cls-9" cx="218.86" cy="421.6" rx="0.92" ry="0.81"/><ellipse class="cls-9" cx="328.61" cy="534.79" rx="0.92" ry="0.81"/><ellipse class="cls-9" cx="127.23" cy="405.52" rx="0.67" ry="0.6"/><ellipse class="cls-9" cx="436.89" cy="524" rx="0.67" ry="0.6"/><ellipse class="cls-9" cx="395.01" cy="416.38" rx="0.71" ry="0.62"/><ellipse class="cls-9" cx="304.52" cy="327.38" rx="0.71" ry="0.62"/><ellipse class="cls-9" cx="605.65" cy="349.54" rx="1.51" ry="1.33"/><ellipse class="cls-9" cx="571.84" cy="345.09" rx="0.71" ry="0.62"/><ellipse class="cls-9" cx="464.64" cy="729.16" rx="1.51" ry="1.33"/><ellipse class="cls-9" cx="430.82" cy="724.71" rx="0.71" ry="0.62"/></g></g><g id="Layer_9" data-name="Layer 9"><path class="cls-9" d="M-.84-2.87V124.61a430.34,430.34,0,0,0,112.68,15c126.89,0,240.93-55,319.61-142.43Z"/></g></g></svg>